ISO-10303-21;
HEADER;
/* Generated by software containing ST-Developer
 * from STEP Tools, Inc. (www.steptools.com) 
 */

FILE_DESCRIPTION(
/* description */ (''),
/* implementation_level */ '2;1');

FILE_NAME(
/* name */ 'Base.step',
/* time_stamp */ '2026-09-18T23:36:38+12:00',
/* author */ (''),
/* organization */ (''),
/* preprocessor_version */ 'ST-DEVELOPER v20.2',
/* originating_system */ 'Autodesk Translation Framework v15.15.0.0',
/* authorisation */ '');

FILE_SCHEMA (('AUTOMOTIVE_DESIGN { 1 0 10303 214 3 1 1 }'));
ENDSEC;

DATA;
#10=MECHANICAL_DESIGN_GEOMETRIC_PRESENTATION_REPRESENTATION('',(#13),#1173);
#11=SHAPE_REPRESENTATION_RELATIONSHIP('SRR','None',#1180,#12);
#12=ADVANCED_BREP_SHAPE_REPRESENTATION('',(#14),#1172);
#13=STYLED_ITEM('',(#1190),#14);
#14=MANIFOLD_SOLID_BREP('Base',#691);
#15=FACE_BOUND('',#106,.T.);
#16=FACE_BOUND('',#107,.T.);
#17=FACE_BOUND('',#108,.T.);
#18=FACE_BOUND('',#109,.T.);
#19=FACE_BOUND('',#115,.T.);
#20=FACE_BOUND('',#122,.T.);
#21=FACE_BOUND('',#124,.T.);
#22=FACE_BOUND('',#131,.T.);
#23=FACE_BOUND('',#133,.T.);
#24=FACE_BOUND('',#140,.T.);
#25=FACE_BOUND('',#142,.T.);
#26=FACE_BOUND('',#149,.T.);
#27=FACE_BOUND('',#152,.T.);
#28=FACE_BOUND('',#153,.T.);
#29=FACE_BOUND('',#154,.T.);
#30=FACE_BOUND('',#155,.T.);
#31=PLANE('',#718);
#32=PLANE('',#731);
#33=PLANE('',#735);
#34=PLANE('',#736);
#35=PLANE('',#737);
#36=PLANE('',#738);
#37=PLANE('',#739);
#38=PLANE('',#740);
#39=PLANE('',#744);
#40=PLANE('',#745);
#41=PLANE('',#746);
#42=PLANE('',#747);
#43=PLANE('',#748);
#44=PLANE('',#749);
#45=PLANE('',#753);
#46=PLANE('',#754);
#47=PLANE('',#755);
#48=PLANE('',#756);
#49=PLANE('',#757);
#50=PLANE('',#758);
#51=PLANE('',#762);
#52=PLANE('',#763);
#53=PLANE('',#764);
#54=PLANE('',#765);
#55=PLANE('',#766);
#56=PLANE('',#767);
#57=PLANE('',#768);
#58=(
BOUNDED_SURFACE()
B_SPLINE_SURFACE(2,2,((#973,#974,#975),(#976,#977,#978),(#979,#980,#981)),
 .UNSPECIFIED.,.F.,.F.,.F.)
B_SPLINE_SURFACE_WITH_KNOTS((3,3),(3,3),(0.411516846067488,1.5707963267949),
(1.57079632679481,3.14159265358981),.UNSPECIFIED.)
GEOMETRIC_REPRESENTATION_ITEM()
RATIONAL_B_SPLINE_SURFACE(((1.,0.707106781186509,1.),(0.836660026534073,
0.591607978309928,0.836660026534073),(1.,0.707106781186509,1.)))
REPRESENTATION_ITEM('')
SURFACE()
);
#59=(
BOUNDED_SURFACE()
B_SPLINE_SURFACE(2,2,((#993,#994,#995),(#996,#997,#998),(#999,#1000,#1001)),
 .UNSPECIFIED.,.F.,.F.,.F.)
B_SPLINE_SURFACE_WITH_KNOTS((3,3),(3,3),(0.411516846067488,1.5707963267949),
(1.57079632679506,3.14159265358985),.UNSPECIFIED.)
GEOMETRIC_REPRESENTATION_ITEM()
RATIONAL_B_SPLINE_SURFACE(((1.,0.707106781186584,1.),(0.836660026534077,
0.591607978309993,0.836660026534077),(1.,0.707106781186584,1.)))
REPRESENTATION_ITEM('')
SURFACE()
);
#60=FACE_OUTER_BOUND('',#100,.T.);
#61=FACE_OUTER_BOUND('',#101,.T.);
#62=FACE_OUTER_BOUND('',#102,.T.);
#63=FACE_OUTER_BOUND('',#103,.T.);
#64=FACE_OUTER_BOUND('',#104,.T.);
#65=FACE_OUTER_BOUND('',#105,.T.);
#66=FACE_OUTER_BOUND('',#110,.T.);
#67=FACE_OUTER_BOUND('',#111,.T.);
#68=FACE_OUTER_BOUND('',#112,.T.);
#69=FACE_OUTER_BOUND('',#113,.T.);
#70=FACE_OUTER_BOUND('',#114,.T.);
#71=FACE_OUTER_BOUND('',#116,.T.);
#72=FACE_OUTER_BOUND('',#117,.T.);
#73=FACE_OUTER_BOUND('',#118,.T.);
#74=FACE_OUTER_BOUND('',#119,.T.);
#75=FACE_OUTER_BOUND('',#120,.T.);
#76=FACE_OUTER_BOUND('',#121,.T.);
#77=FACE_OUTER_BOUND('',#123,.T.);
#78=FACE_OUTER_BOUND('',#125,.T.);
#79=FACE_OUTER_BOUND('',#126,.T.);
#80=FACE_OUTER_BOUND('',#127,.T.);
#81=FACE_OUTER_BOUND('',#128,.T.);
#82=FACE_OUTER_BOUND('',#129,.T.);
#83=FACE_OUTER_BOUND('',#130,.T.);
#84=FACE_OUTER_BOUND('',#132,.T.);
#85=FACE_OUTER_BOUND('',#134,.T.);
#86=FACE_OUTER_BOUND('',#135,.T.);
#87=FACE_OUTER_BOUND('',#136,.T.);
#88=FACE_OUTER_BOUND('',#137,.T.);
#89=FACE_OUTER_BOUND('',#138,.T.);
#90=FACE_OUTER_BOUND('',#139,.T.);
#91=FACE_OUTER_BOUND('',#141,.T.);
#92=FACE_OUTER_BOUND('',#143,.T.);
#93=FACE_OUTER_BOUND('',#144,.T.);
#94=FACE_OUTER_BOUND('',#145,.T.);
#95=FACE_OUTER_BOUND('',#146,.T.);
#96=FACE_OUTER_BOUND('',#147,.T.);
#97=FACE_OUTER_BOUND('',#148,.T.);
#98=FACE_OUTER_BOUND('',#150,.T.);
#99=FACE_OUTER_BOUND('',#151,.T.);
#100=EDGE_LOOP('',(#460,#461,#462,#463));
#101=EDGE_LOOP('',(#464,#465,#466,#467));
#102=EDGE_LOOP('',(#468,#469,#470,#471));
#103=EDGE_LOOP('',(#472,#473,#474,#475));
#104=EDGE_LOOP('',(#476,#477,#478,#479));
#105=EDGE_LOOP('',(#480,#481,#482,#483,#484,#485));
#106=EDGE_LOOP('',(#486));
#107=EDGE_LOOP('',(#487));
#108=EDGE_LOOP('',(#488));
#109=EDGE_LOOP('',(#489));
#110=EDGE_LOOP('',(#490,#491,#492,#493));
#111=EDGE_LOOP('',(#494,#495,#496,#497));
#112=EDGE_LOOP('',(#498,#499,#500,#501));
#113=EDGE_LOOP('',(#502,#503,#504,#505));
#114=EDGE_LOOP('',(#506));
#115=EDGE_LOOP('',(#507));
#116=EDGE_LOOP('',(#508,#509,#510,#511));
#117=EDGE_LOOP('',(#512,#513,#514,#515));
#118=EDGE_LOOP('',(#516,#517,#518,#519));
#119=EDGE_LOOP('',(#520,#521,#522,#523));
#120=EDGE_LOOP('',(#524,#525,#526,#527));
#121=EDGE_LOOP('',(#528,#529,#530,#531));
#122=EDGE_LOOP('',(#532));
#123=EDGE_LOOP('',(#533));
#124=EDGE_LOOP('',(#534));
#125=EDGE_LOOP('',(#535,#536,#537,#538));
#126=EDGE_LOOP('',(#539,#540,#541,#542));
#127=EDGE_LOOP('',(#543,#544,#545,#546));
#128=EDGE_LOOP('',(#547,#548,#549,#550));
#129=EDGE_LOOP('',(#551,#552,#553,#554));
#130=EDGE_LOOP('',(#555,#556,#557,#558));
#131=EDGE_LOOP('',(#559));
#132=EDGE_LOOP('',(#560));
#133=EDGE_LOOP('',(#561));
#134=EDGE_LOOP('',(#562,#563,#564,#565));
#135=EDGE_LOOP('',(#566,#567,#568,#569));
#136=EDGE_LOOP('',(#570,#571,#572,#573));
#137=EDGE_LOOP('',(#574,#575,#576,#577));
#138=EDGE_LOOP('',(#578,#579,#580,#581));
#139=EDGE_LOOP('',(#582,#583,#584,#585));
#140=EDGE_LOOP('',(#586));
#141=EDGE_LOOP('',(#587));
#142=EDGE_LOOP('',(#588));
#143=EDGE_LOOP('',(#589,#590,#591,#592));
#144=EDGE_LOOP('',(#593,#594,#595,#596));
#145=EDGE_LOOP('',(#597,#598,#599,#600));
#146=EDGE_LOOP('',(#601,#602,#603,#604));
#147=EDGE_LOOP('',(#605,#606,#607,#608));
#148=EDGE_LOOP('',(#609,#610,#611,#612));
#149=EDGE_LOOP('',(#613));
#150=EDGE_LOOP('',(#614,#615,#616,#617));
#151=EDGE_LOOP('',(#618,#619,#620,#621,#622,#623));
#152=EDGE_LOOP('',(#624,#625,#626,#627));
#153=EDGE_LOOP('',(#628,#629,#630,#631));
#154=EDGE_LOOP('',(#632,#633,#634,#635));
#155=EDGE_LOOP('',(#636,#637,#638,#639));
#156=LINE('',#969,#220);
#157=LINE('',#972,#221);
#158=LINE('',#991,#222);
#159=LINE('',#992,#223);
#160=LINE('',#1011,#224);
#161=LINE('',#1012,#225);
#162=LINE('',#1014,#226);
#163=LINE('',#1025,#227);
#164=LINE('',#1029,#228);
#165=LINE('',#1033,#229);
#166=LINE('',#1037,#230);
#167=LINE('',#1045,#231);
#168=LINE('',#1049,#232);
#169=LINE('',#1051,#233);
#170=LINE('',#1053,#234);
#171=LINE('',#1054,#235);
#172=LINE('',#1057,#236);
#173=LINE('',#1059,#237);
#174=LINE('',#1060,#238);
#175=LINE('',#1063,#239);
#176=LINE('',#1065,#240);
#177=LINE('',#1066,#241);
#178=LINE('',#1068,#242);
#179=LINE('',#1069,#243);
#180=LINE('',#1077,#244);
#181=LINE('',#1081,#245);
#182=LINE('',#1083,#246);
#183=LINE('',#1085,#247);
#184=LINE('',#1086,#248);
#185=LINE('',#1089,#249);
#186=LINE('',#1091,#250);
#187=LINE('',#1092,#251);
#188=LINE('',#1095,#252);
#189=LINE('',#1097,#253);
#190=LINE('',#1098,#254);
#191=LINE('',#1100,#255);
#192=LINE('',#1101,#256);
#193=LINE('',#1109,#257);
#194=LINE('',#1113,#258);
#195=LINE('',#1115,#259);
#196=LINE('',#1117,#260);
#197=LINE('',#1118,#261);
#198=LINE('',#1121,#262);
#199=LINE('',#1123,#263);
#200=LINE('',#1124,#264);
#201=LINE('',#1127,#265);
#202=LINE('',#1129,#266);
#203=LINE('',#1130,#267);
#204=LINE('',#1132,#268);
#205=LINE('',#1133,#269);
#206=LINE('',#1141,#270);
#207=LINE('',#1145,#271);
#208=LINE('',#1147,#272);
#209=LINE('',#1149,#273);
#210=LINE('',#1150,#274);
#211=LINE('',#1153,#275);
#212=LINE('',#1155,#276);
#213=LINE('',#1156,#277);
#214=LINE('',#1159,#278);
#215=LINE('',#1161,#279);
#216=LINE('',#1162,#280);
#217=LINE('',#1164,#281);
#218=LINE('',#1165,#282);
#219=LINE('',#1168,#283);
#220=VECTOR('',#775,10.);
#221=VECTOR('',#778,5.);
#222=VECTOR('',#789,5.);
#223=VECTOR('',#790,10.);
#224=VECTOR('',#801,5.);
#225=VECTOR('',#802,10.);
#226=VECTOR('',#805,10.);
#227=VECTOR('',#816,2.625);
#228=VECTOR('',#821,2.625);
#229=VECTOR('',#826,2.625);
#230=VECTOR('',#831,2.625);
#231=VECTOR('',#842,1.25);
#232=VECTOR('',#845,10.);
#233=VECTOR('',#846,10.);
#234=VECTOR('',#847,10.);
#235=VECTOR('',#848,10.);
#236=VECTOR('',#851,10.);
#237=VECTOR('',#852,10.);
#238=VECTOR('',#853,10.);
#239=VECTOR('',#856,10.);
#240=VECTOR('',#857,10.);
#241=VECTOR('',#858,10.);
#242=VECTOR('',#861,10.);
#243=VECTOR('',#862,10.);
#244=VECTOR('',#873,1.25);
#245=VECTOR('',#876,10.);
#246=VECTOR('',#877,10.);
#247=VECTOR('',#878,10.);
#248=VECTOR('',#879,10.);
#249=VECTOR('',#882,10.);
#250=VECTOR('',#883,10.);
#251=VECTOR('',#884,10.);
#252=VECTOR('',#887,10.);
#253=VECTOR('',#888,10.);
#254=VECTOR('',#889,10.);
#255=VECTOR('',#892,10.);
#256=VECTOR('',#893,10.);
#257=VECTOR('',#904,1.25);
#258=VECTOR('',#907,10.);
#259=VECTOR('',#908,10.);
#260=VECTOR('',#909,10.);
#261=VECTOR('',#910,10.);
#262=VECTOR('',#913,10.);
#263=VECTOR('',#914,10.);
#264=VECTOR('',#915,10.);
#265=VECTOR('',#918,10.);
#266=VECTOR('',#919,10.);
#267=VECTOR('',#920,10.);
#268=VECTOR('',#923,10.);
#269=VECTOR('',#924,10.);
#270=VECTOR('',#935,1.25);
#271=VECTOR('',#938,10.);
#272=VECTOR('',#939,10.);
#273=VECTOR('',#940,10.);
#274=VECTOR('',#941,10.);
#275=VECTOR('',#944,10.);
#276=VECTOR('',#945,10.);
#277=VECTOR('',#946,10.);
#278=VECTOR('',#949,10.);
#279=VECTOR('',#950,10.);
#280=VECTOR('',#951,10.);
#281=VECTOR('',#954,10.);
#282=VECTOR('',#955,10.);
#283=VECTOR('',#960,10.);
#284=CIRCLE('',#706,5.);
#285=CIRCLE('',#707,5.);
#286=CIRCLE('',#708,5.);
#287=CIRCLE('',#709,0.417424305044158);
#288=CIRCLE('',#710,5.);
#289=CIRCLE('',#712,5.);
#290=CIRCLE('',#713,5.);
#291=CIRCLE('',#714,0.417424305044161);
#292=CIRCLE('',#715,5.);
#293=CIRCLE('',#717,5.);
#294=CIRCLE('',#719,2.625);
#295=CIRCLE('',#720,2.625);
#296=CIRCLE('',#721,2.625);
#297=CIRCLE('',#722,2.625);
#298=CIRCLE('',#724,2.625);
#299=CIRCLE('',#726,2.625);
#300=CIRCLE('',#728,2.625);
#301=CIRCLE('',#730,2.625);
#302=CIRCLE('',#732,1.25);
#303=CIRCLE('',#734,1.25);
#304=CIRCLE('',#741,1.25);
#305=CIRCLE('',#743,1.25);
#306=CIRCLE('',#750,1.25);
#307=CIRCLE('',#752,1.25);
#308=CIRCLE('',#759,1.25);
#309=CIRCLE('',#761,1.25);
#310=VERTEX_POINT('',#965);
#311=VERTEX_POINT('',#966);
#312=VERTEX_POINT('',#968);
#313=VERTEX_POINT('',#970);
#314=VERTEX_POINT('',#982);
#315=VERTEX_POINT('',#983);
#316=VERTEX_POINT('',#988);
#317=VERTEX_POINT('',#989);
#318=VERTEX_POINT('',#1002);
#319=VERTEX_POINT('',#1003);
#320=VERTEX_POINT('',#1008);
#321=VERTEX_POINT('',#1009);
#322=VERTEX_POINT('',#1015);
#323=VERTEX_POINT('',#1017);
#324=VERTEX_POINT('',#1019);
#325=VERTEX_POINT('',#1021);
#326=VERTEX_POINT('',#1024);
#327=VERTEX_POINT('',#1028);
#328=VERTEX_POINT('',#1032);
#329=VERTEX_POINT('',#1036);
#330=VERTEX_POINT('',#1040);
#331=VERTEX_POINT('',#1043);
#332=VERTEX_POINT('',#1047);
#333=VERTEX_POINT('',#1048);
#334=VERTEX_POINT('',#1050);
#335=VERTEX_POINT('',#1052);
#336=VERTEX_POINT('',#1056);
#337=VERTEX_POINT('',#1058);
#338=VERTEX_POINT('',#1062);
#339=VERTEX_POINT('',#1064);
#340=VERTEX_POINT('',#1072);
#341=VERTEX_POINT('',#1075);
#342=VERTEX_POINT('',#1079);
#343=VERTEX_POINT('',#1080);
#344=VERTEX_POINT('',#1082);
#345=VERTEX_POINT('',#1084);
#346=VERTEX_POINT('',#1088);
#347=VERTEX_POINT('',#1090);
#348=VERTEX_POINT('',#1094);
#349=VERTEX_POINT('',#1096);
#350=VERTEX_POINT('',#1104);
#351=VERTEX_POINT('',#1107);
#352=VERTEX_POINT('',#1111);
#353=VERTEX_POINT('',#1112);
#354=VERTEX_POINT('',#1114);
#355=VERTEX_POINT('',#1116);
#356=VERTEX_POINT('',#1120);
#357=VERTEX_POINT('',#1122);
#358=VERTEX_POINT('',#1126);
#359=VERTEX_POINT('',#1128);
#360=VERTEX_POINT('',#1136);
#361=VERTEX_POINT('',#1139);
#362=VERTEX_POINT('',#1143);
#363=VERTEX_POINT('',#1144);
#364=VERTEX_POINT('',#1146);
#365=VERTEX_POINT('',#1148);
#366=VERTEX_POINT('',#1152);
#367=VERTEX_POINT('',#1154);
#368=VERTEX_POINT('',#1158);
#369=VERTEX_POINT('',#1160);
#370=EDGE_CURVE('',#310,#311,#284,.T.);
#371=EDGE_CURVE('',#311,#312,#156,.T.);
#372=EDGE_CURVE('',#312,#313,#285,.T.);
#373=EDGE_CURVE('',#313,#310,#157,.T.);
#374=EDGE_CURVE('',#314,#315,#286,.T.);
#375=EDGE_CURVE('',#315,#313,#287,.T.);
#376=EDGE_CURVE('',#312,#314,#288,.T.);
#377=EDGE_CURVE('',#316,#317,#289,.T.);
#378=EDGE_CURVE('',#317,#315,#158,.T.);
#379=EDGE_CURVE('',#314,#316,#159,.T.);
#380=EDGE_CURVE('',#318,#319,#290,.T.);
#381=EDGE_CURVE('',#319,#317,#291,.T.);
#382=EDGE_CURVE('',#316,#318,#292,.T.);
#383=EDGE_CURVE('',#320,#321,#293,.T.);
#384=EDGE_CURVE('',#321,#319,#160,.T.);
#385=EDGE_CURVE('',#318,#320,#161,.T.);
#386=EDGE_CURVE('',#321,#310,#162,.T.);
#387=EDGE_CURVE('',#322,#322,#294,.T.);
#388=EDGE_CURVE('',#323,#323,#295,.T.);
#389=EDGE_CURVE('',#324,#324,#296,.T.);
#390=EDGE_CURVE('',#325,#325,#297,.T.);
#391=EDGE_CURVE('',#325,#326,#163,.T.);
#392=EDGE_CURVE('',#326,#326,#298,.T.);
#393=EDGE_CURVE('',#324,#327,#164,.T.);
#394=EDGE_CURVE('',#327,#327,#299,.T.);
#395=EDGE_CURVE('',#323,#328,#165,.T.);
#396=EDGE_CURVE('',#328,#328,#300,.T.);
#397=EDGE_CURVE('',#322,#329,#166,.T.);
#398=EDGE_CURVE('',#329,#329,#301,.T.);
#399=EDGE_CURVE('',#330,#330,#302,.T.);
#400=EDGE_CURVE('',#331,#331,#303,.T.);
#401=EDGE_CURVE('',#331,#330,#167,.T.);
#402=EDGE_CURVE('',#332,#333,#168,.T.);
#403=EDGE_CURVE('',#332,#334,#169,.T.);
#404=EDGE_CURVE('',#335,#334,#170,.T.);
#405=EDGE_CURVE('',#333,#335,#171,.T.);
#406=EDGE_CURVE('',#333,#336,#172,.T.);
#407=EDGE_CURVE('',#337,#335,#173,.T.);
#408=EDGE_CURVE('',#336,#337,#174,.T.);
#409=EDGE_CURVE('',#336,#338,#175,.T.);
#410=EDGE_CURVE('',#339,#337,#176,.T.);
#411=EDGE_CURVE('',#338,#339,#177,.T.);
#412=EDGE_CURVE('',#338,#332,#178,.T.);
#413=EDGE_CURVE('',#334,#339,#179,.T.);
#414=EDGE_CURVE('',#340,#340,#304,.T.);
#415=EDGE_CURVE('',#341,#341,#305,.T.);
#416=EDGE_CURVE('',#341,#340,#180,.T.);
#417=EDGE_CURVE('',#342,#343,#181,.T.);
#418=EDGE_CURVE('',#342,#344,#182,.T.);
#419=EDGE_CURVE('',#345,#344,#183,.T.);
#420=EDGE_CURVE('',#343,#345,#184,.T.);
#421=EDGE_CURVE('',#343,#346,#185,.T.);
#422=EDGE_CURVE('',#347,#345,#186,.T.);
#423=EDGE_CURVE('',#346,#347,#187,.T.);
#424=EDGE_CURVE('',#346,#348,#188,.T.);
#425=EDGE_CURVE('',#349,#347,#189,.T.);
#426=EDGE_CURVE('',#348,#349,#190,.T.);
#427=EDGE_CURVE('',#348,#342,#191,.T.);
#428=EDGE_CURVE('',#344,#349,#192,.T.);
#429=EDGE_CURVE('',#350,#350,#306,.T.);
#430=EDGE_CURVE('',#351,#351,#307,.T.);
#431=EDGE_CURVE('',#351,#350,#193,.T.);
#432=EDGE_CURVE('',#352,#353,#194,.T.);
#433=EDGE_CURVE('',#352,#354,#195,.T.);
#434=EDGE_CURVE('',#355,#354,#196,.T.);
#435=EDGE_CURVE('',#353,#355,#197,.T.);
#436=EDGE_CURVE('',#353,#356,#198,.T.);
#437=EDGE_CURVE('',#357,#355,#199,.T.);
#438=EDGE_CURVE('',#356,#357,#200,.T.);
#439=EDGE_CURVE('',#356,#358,#201,.T.);
#440=EDGE_CURVE('',#359,#357,#202,.T.);
#441=EDGE_CURVE('',#358,#359,#203,.T.);
#442=EDGE_CURVE('',#358,#352,#204,.T.);
#443=EDGE_CURVE('',#354,#359,#205,.T.);
#444=EDGE_CURVE('',#360,#360,#308,.T.);
#445=EDGE_CURVE('',#361,#361,#309,.T.);
#446=EDGE_CURVE('',#361,#360,#206,.T.);
#447=EDGE_CURVE('',#362,#363,#207,.T.);
#448=EDGE_CURVE('',#362,#364,#208,.T.);
#449=EDGE_CURVE('',#365,#364,#209,.T.);
#450=EDGE_CURVE('',#363,#365,#210,.T.);
#451=EDGE_CURVE('',#363,#366,#211,.T.);
#452=EDGE_CURVE('',#367,#365,#212,.T.);
#453=EDGE_CURVE('',#366,#367,#213,.T.);
#454=EDGE_CURVE('',#366,#368,#214,.T.);
#455=EDGE_CURVE('',#369,#367,#215,.T.);
#456=EDGE_CURVE('',#368,#369,#216,.T.);
#457=EDGE_CURVE('',#368,#362,#217,.T.);
#458=EDGE_CURVE('',#364,#369,#218,.T.);
#459=EDGE_CURVE('',#320,#311,#219,.T.);
#460=ORIENTED_EDGE('',*,*,#370,.T.);
#461=ORIENTED_EDGE('',*,*,#371,.T.);
#462=ORIENTED_EDGE('',*,*,#372,.T.);
#463=ORIENTED_EDGE('',*,*,#373,.T.);
#464=ORIENTED_EDGE('',*,*,#374,.T.);
#465=ORIENTED_EDGE('',*,*,#375,.T.);
#466=ORIENTED_EDGE('',*,*,#372,.F.);
#467=ORIENTED_EDGE('',*,*,#376,.T.);
#468=ORIENTED_EDGE('',*,*,#377,.T.);
#469=ORIENTED_EDGE('',*,*,#378,.T.);
#470=ORIENTED_EDGE('',*,*,#374,.F.);
#471=ORIENTED_EDGE('',*,*,#379,.T.);
#472=ORIENTED_EDGE('',*,*,#380,.T.);
#473=ORIENTED_EDGE('',*,*,#381,.T.);
#474=ORIENTED_EDGE('',*,*,#377,.F.);
#475=ORIENTED_EDGE('',*,*,#382,.T.);
#476=ORIENTED_EDGE('',*,*,#383,.T.);
#477=ORIENTED_EDGE('',*,*,#384,.T.);
#478=ORIENTED_EDGE('',*,*,#380,.F.);
#479=ORIENTED_EDGE('',*,*,#385,.T.);
#480=ORIENTED_EDGE('',*,*,#384,.F.);
#481=ORIENTED_EDGE('',*,*,#386,.T.);
#482=ORIENTED_EDGE('',*,*,#373,.F.);
#483=ORIENTED_EDGE('',*,*,#375,.F.);
#484=ORIENTED_EDGE('',*,*,#378,.F.);
#485=ORIENTED_EDGE('',*,*,#381,.F.);
#486=ORIENTED_EDGE('',*,*,#387,.T.);
#487=ORIENTED_EDGE('',*,*,#388,.T.);
#488=ORIENTED_EDGE('',*,*,#389,.T.);
#489=ORIENTED_EDGE('',*,*,#390,.T.);
#490=ORIENTED_EDGE('',*,*,#390,.F.);
#491=ORIENTED_EDGE('',*,*,#391,.T.);
#492=ORIENTED_EDGE('',*,*,#392,.T.);
#493=ORIENTED_EDGE('',*,*,#391,.F.);
#494=ORIENTED_EDGE('',*,*,#389,.F.);
#495=ORIENTED_EDGE('',*,*,#393,.T.);
#496=ORIENTED_EDGE('',*,*,#394,.T.);
#497=ORIENTED_EDGE('',*,*,#393,.F.);
#498=ORIENTED_EDGE('',*,*,#388,.F.);
#499=ORIENTED_EDGE('',*,*,#395,.T.);
#500=ORIENTED_EDGE('',*,*,#396,.T.);
#501=ORIENTED_EDGE('',*,*,#395,.F.);
#502=ORIENTED_EDGE('',*,*,#387,.F.);
#503=ORIENTED_EDGE('',*,*,#397,.T.);
#504=ORIENTED_EDGE('',*,*,#398,.T.);
#505=ORIENTED_EDGE('',*,*,#397,.F.);
#506=ORIENTED_EDGE('',*,*,#398,.F.);
#507=ORIENTED_EDGE('',*,*,#399,.T.);
#508=ORIENTED_EDGE('',*,*,#400,.F.);
#509=ORIENTED_EDGE('',*,*,#401,.T.);
#510=ORIENTED_EDGE('',*,*,#399,.F.);
#511=ORIENTED_EDGE('',*,*,#401,.F.);
#512=ORIENTED_EDGE('',*,*,#402,.F.);
#513=ORIENTED_EDGE('',*,*,#403,.T.);
#514=ORIENTED_EDGE('',*,*,#404,.F.);
#515=ORIENTED_EDGE('',*,*,#405,.F.);
#516=ORIENTED_EDGE('',*,*,#406,.F.);
#517=ORIENTED_EDGE('',*,*,#405,.T.);
#518=ORIENTED_EDGE('',*,*,#407,.F.);
#519=ORIENTED_EDGE('',*,*,#408,.F.);
#520=ORIENTED_EDGE('',*,*,#409,.F.);
#521=ORIENTED_EDGE('',*,*,#408,.T.);
#522=ORIENTED_EDGE('',*,*,#410,.F.);
#523=ORIENTED_EDGE('',*,*,#411,.F.);
#524=ORIENTED_EDGE('',*,*,#412,.F.);
#525=ORIENTED_EDGE('',*,*,#411,.T.);
#526=ORIENTED_EDGE('',*,*,#413,.F.);
#527=ORIENTED_EDGE('',*,*,#403,.F.);
#528=ORIENTED_EDGE('',*,*,#413,.T.);
#529=ORIENTED_EDGE('',*,*,#410,.T.);
#530=ORIENTED_EDGE('',*,*,#407,.T.);
#531=ORIENTED_EDGE('',*,*,#404,.T.);
#532=ORIENTED_EDGE('',*,*,#400,.T.);
#533=ORIENTED_EDGE('',*,*,#396,.F.);
#534=ORIENTED_EDGE('',*,*,#414,.T.);
#535=ORIENTED_EDGE('',*,*,#415,.F.);
#536=ORIENTED_EDGE('',*,*,#416,.T.);
#537=ORIENTED_EDGE('',*,*,#414,.F.);
#538=ORIENTED_EDGE('',*,*,#416,.F.);
#539=ORIENTED_EDGE('',*,*,#417,.F.);
#540=ORIENTED_EDGE('',*,*,#418,.T.);
#541=ORIENTED_EDGE('',*,*,#419,.F.);
#542=ORIENTED_EDGE('',*,*,#420,.F.);
#543=ORIENTED_EDGE('',*,*,#421,.F.);
#544=ORIENTED_EDGE('',*,*,#420,.T.);
#545=ORIENTED_EDGE('',*,*,#422,.F.);
#546=ORIENTED_EDGE('',*,*,#423,.F.);
#547=ORIENTED_EDGE('',*,*,#424,.F.);
#548=ORIENTED_EDGE('',*,*,#423,.T.);
#549=ORIENTED_EDGE('',*,*,#425,.F.);
#550=ORIENTED_EDGE('',*,*,#426,.F.);
#551=ORIENTED_EDGE('',*,*,#427,.F.);
#552=ORIENTED_EDGE('',*,*,#426,.T.);
#553=ORIENTED_EDGE('',*,*,#428,.F.);
#554=ORIENTED_EDGE('',*,*,#418,.F.);
#555=ORIENTED_EDGE('',*,*,#428,.T.);
#556=ORIENTED_EDGE('',*,*,#425,.T.);
#557=ORIENTED_EDGE('',*,*,#422,.T.);
#558=ORIENTED_EDGE('',*,*,#419,.T.);
#559=ORIENTED_EDGE('',*,*,#415,.T.);
#560=ORIENTED_EDGE('',*,*,#394,.F.);
#561=ORIENTED_EDGE('',*,*,#429,.T.);
#562=ORIENTED_EDGE('',*,*,#430,.F.);
#563=ORIENTED_EDGE('',*,*,#431,.T.);
#564=ORIENTED_EDGE('',*,*,#429,.F.);
#565=ORIENTED_EDGE('',*,*,#431,.F.);
#566=ORIENTED_EDGE('',*,*,#432,.F.);
#567=ORIENTED_EDGE('',*,*,#433,.T.);
#568=ORIENTED_EDGE('',*,*,#434,.F.);
#569=ORIENTED_EDGE('',*,*,#435,.F.);
#570=ORIENTED_EDGE('',*,*,#436,.F.);
#571=ORIENTED_EDGE('',*,*,#435,.T.);
#572=ORIENTED_EDGE('',*,*,#437,.F.);
#573=ORIENTED_EDGE('',*,*,#438,.F.);
#574=ORIENTED_EDGE('',*,*,#439,.F.);
#575=ORIENTED_EDGE('',*,*,#438,.T.);
#576=ORIENTED_EDGE('',*,*,#440,.F.);
#577=ORIENTED_EDGE('',*,*,#441,.F.);
#578=ORIENTED_EDGE('',*,*,#442,.F.);
#579=ORIENTED_EDGE('',*,*,#441,.T.);
#580=ORIENTED_EDGE('',*,*,#443,.F.);
#581=ORIENTED_EDGE('',*,*,#433,.F.);
#582=ORIENTED_EDGE('',*,*,#443,.T.);
#583=ORIENTED_EDGE('',*,*,#440,.T.);
#584=ORIENTED_EDGE('',*,*,#437,.T.);
#585=ORIENTED_EDGE('',*,*,#434,.T.);
#586=ORIENTED_EDGE('',*,*,#430,.T.);
#587=ORIENTED_EDGE('',*,*,#392,.F.);
#588=ORIENTED_EDGE('',*,*,#444,.T.);
#589=ORIENTED_EDGE('',*,*,#445,.F.);
#590=ORIENTED_EDGE('',*,*,#446,.T.);
#591=ORIENTED_EDGE('',*,*,#444,.F.);
#592=ORIENTED_EDGE('',*,*,#446,.F.);
#593=ORIENTED_EDGE('',*,*,#447,.F.);
#594=ORIENTED_EDGE('',*,*,#448,.T.);
#595=ORIENTED_EDGE('',*,*,#449,.F.);
#596=ORIENTED_EDGE('',*,*,#450,.F.);
#597=ORIENTED_EDGE('',*,*,#451,.F.);
#598=ORIENTED_EDGE('',*,*,#450,.T.);
#599=ORIENTED_EDGE('',*,*,#452,.F.);
#600=ORIENTED_EDGE('',*,*,#453,.F.);
#601=ORIENTED_EDGE('',*,*,#454,.F.);
#602=ORIENTED_EDGE('',*,*,#453,.T.);
#603=ORIENTED_EDGE('',*,*,#455,.F.);
#604=ORIENTED_EDGE('',*,*,#456,.F.);
#605=ORIENTED_EDGE('',*,*,#457,.F.);
#606=ORIENTED_EDGE('',*,*,#456,.T.);
#607=ORIENTED_EDGE('',*,*,#458,.F.);
#608=ORIENTED_EDGE('',*,*,#448,.F.);
#609=ORIENTED_EDGE('',*,*,#458,.T.);
#610=ORIENTED_EDGE('',*,*,#455,.T.);
#611=ORIENTED_EDGE('',*,*,#452,.T.);
#612=ORIENTED_EDGE('',*,*,#449,.T.);
#613=ORIENTED_EDGE('',*,*,#445,.T.);
#614=ORIENTED_EDGE('',*,*,#383,.F.);
#615=ORIENTED_EDGE('',*,*,#459,.T.);
#616=ORIENTED_EDGE('',*,*,#370,.F.);
#617=ORIENTED_EDGE('',*,*,#386,.F.);
#618=ORIENTED_EDGE('',*,*,#376,.F.);
#619=ORIENTED_EDGE('',*,*,#371,.F.);
#620=ORIENTED_EDGE('',*,*,#459,.F.);
#621=ORIENTED_EDGE('',*,*,#385,.F.);
#622=ORIENTED_EDGE('',*,*,#382,.F.);
#623=ORIENTED_EDGE('',*,*,#379,.F.);
#624=ORIENTED_EDGE('',*,*,#402,.T.);
#625=ORIENTED_EDGE('',*,*,#406,.T.);
#626=ORIENTED_EDGE('',*,*,#409,.T.);
#627=ORIENTED_EDGE('',*,*,#412,.T.);
#628=ORIENTED_EDGE('',*,*,#417,.T.);
#629=ORIENTED_EDGE('',*,*,#421,.T.);
#630=ORIENTED_EDGE('',*,*,#424,.T.);
#631=ORIENTED_EDGE('',*,*,#427,.T.);
#632=ORIENTED_EDGE('',*,*,#432,.T.);
#633=ORIENTED_EDGE('',*,*,#436,.T.);
#634=ORIENTED_EDGE('',*,*,#439,.T.);
#635=ORIENTED_EDGE('',*,*,#442,.T.);
#636=ORIENTED_EDGE('',*,*,#447,.T.);
#637=ORIENTED_EDGE('',*,*,#451,.T.);
#638=ORIENTED_EDGE('',*,*,#454,.T.);
#639=ORIENTED_EDGE('',*,*,#457,.T.);
#640=CYLINDRICAL_SURFACE('',#705,5.);
#641=CYLINDRICAL_SURFACE('',#711,5.);
#642=CYLINDRICAL_SURFACE('',#716,5.);
#643=CYLINDRICAL_SURFACE('',#723,2.625);
#644=CYLINDRICAL_SURFACE('',#725,2.625);
#645=CYLINDRICAL_SURFACE('',#727,2.625);
#646=CYLINDRICAL_SURFACE('',#729,2.625);
#647=CYLINDRICAL_SURFACE('',#733,1.25);
#648=CYLINDRICAL_SURFACE('',#742,1.25);
#649=CYLINDRICAL_SURFACE('',#751,1.25);
#650=CYLINDRICAL_SURFACE('',#760,1.25);
#651=ADVANCED_FACE('',(#60),#640,.T.);
#652=ADVANCED_FACE('',(#61),#58,.T.);
#653=ADVANCED_FACE('',(#62),#641,.T.);
#654=ADVANCED_FACE('',(#63),#59,.T.);
#655=ADVANCED_FACE('',(#64),#642,.T.);
#656=ADVANCED_FACE('',(#65,#15,#16,#17,#18),#31,.T.);
#657=ADVANCED_FACE('',(#66),#643,.F.);
#658=ADVANCED_FACE('',(#67),#644,.F.);
#659=ADVANCED_FACE('',(#68),#645,.F.);
#660=ADVANCED_FACE('',(#69),#646,.F.);
#661=ADVANCED_FACE('',(#70,#19),#32,.T.);
#662=ADVANCED_FACE('',(#71),#647,.F.);
#663=ADVANCED_FACE('',(#72),#33,.T.);
#664=ADVANCED_FACE('',(#73),#34,.T.);
#665=ADVANCED_FACE('',(#74),#35,.T.);
#666=ADVANCED_FACE('',(#75),#36,.T.);
#667=ADVANCED_FACE('',(#76,#20),#37,.F.);
#668=ADVANCED_FACE('',(#77,#21),#38,.T.);
#669=ADVANCED_FACE('',(#78),#648,.F.);
#670=ADVANCED_FACE('',(#79),#39,.T.);
#671=ADVANCED_FACE('',(#80),#40,.T.);
#672=ADVANCED_FACE('',(#81),#41,.T.);
#673=ADVANCED_FACE('',(#82),#42,.T.);
#674=ADVANCED_FACE('',(#83,#22),#43,.F.);
#675=ADVANCED_FACE('',(#84,#23),#44,.T.);
#676=ADVANCED_FACE('',(#85),#649,.F.);
#677=ADVANCED_FACE('',(#86),#45,.T.);
#678=ADVANCED_FACE('',(#87),#46,.T.);
#679=ADVANCED_FACE('',(#88),#47,.T.);
#680=ADVANCED_FACE('',(#89),#48,.T.);
#681=ADVANCED_FACE('',(#90,#24),#49,.F.);
#682=ADVANCED_FACE('',(#91,#25),#50,.T.);
#683=ADVANCED_FACE('',(#92),#650,.F.);
#684=ADVANCED_FACE('',(#93),#51,.T.);
#685=ADVANCED_FACE('',(#94),#52,.T.);
#686=ADVANCED_FACE('',(#95),#53,.T.);
#687=ADVANCED_FACE('',(#96),#54,.T.);
#688=ADVANCED_FACE('',(#97,#26),#55,.F.);
#689=ADVANCED_FACE('',(#98),#56,.T.);
#690=ADVANCED_FACE('',(#99,#27,#28,#29,#30),#57,.F.);
#691=CLOSED_SHELL('',(#651,#652,#653,#654,#655,#656,#657,#658,#659,#660,
#661,#662,#663,#664,#665,#666,#667,#668,#669,#670,#671,#672,#673,#674,#675,
#676,#677,#678,#679,#680,#681,#682,#683,#684,#685,#686,#687,#688,#689,#690));
#692=DERIVED_UNIT_ELEMENT(#694,1.);
#693=DERIVED_UNIT_ELEMENT(#1175,-3.);
#694=(
MASS_UNIT()
NAMED_UNIT(*)
SI_UNIT(.KILO.,.GRAM.)
);
#695=DERIVED_UNIT((#692,#693));
#696=MEASURE_REPRESENTATION_ITEM('density measure',
POSITIVE_RATIO_MEASURE(7850.),#695);
#697=PROPERTY_DEFINITION_REPRESENTATION(#702,#699);
#698=PROPERTY_DEFINITION_REPRESENTATION(#703,#700);
#699=REPRESENTATION('material name',(#701),#1172);
#700=REPRESENTATION('density',(#696),#1172);
#701=DESCRIPTIVE_REPRESENTATION_ITEM('Steel','Steel');
#702=PROPERTY_DEFINITION('material property','material name',#1182);
#703=PROPERTY_DEFINITION('material property','density of part',#1182);
#704=AXIS2_PLACEMENT_3D('',#963,#769,#770);
#705=AXIS2_PLACEMENT_3D('',#964,#771,#772);
#706=AXIS2_PLACEMENT_3D('',#967,#773,#774);
#707=AXIS2_PLACEMENT_3D('',#971,#776,#777);
#708=AXIS2_PLACEMENT_3D('',#984,#779,#780);
#709=AXIS2_PLACEMENT_3D('',#985,#781,#782);
#710=AXIS2_PLACEMENT_3D('',#986,#783,#784);
#711=AXIS2_PLACEMENT_3D('',#987,#785,#786);
#712=AXIS2_PLACEMENT_3D('',#990,#787,#788);
#713=AXIS2_PLACEMENT_3D('',#1004,#791,#792);
#714=AXIS2_PLACEMENT_3D('',#1005,#793,#794);
#715=AXIS2_PLACEMENT_3D('',#1006,#795,#796);
#716=AXIS2_PLACEMENT_3D('',#1007,#797,#798);
#717=AXIS2_PLACEMENT_3D('',#1010,#799,#800);
#718=AXIS2_PLACEMENT_3D('',#1013,#803,#804);
#719=AXIS2_PLACEMENT_3D('',#1016,#806,#807);
#720=AXIS2_PLACEMENT_3D('',#1018,#808,#809);
#721=AXIS2_PLACEMENT_3D('',#1020,#810,#811);
#722=AXIS2_PLACEMENT_3D('',#1022,#812,#813);
#723=AXIS2_PLACEMENT_3D('',#1023,#814,#815);
#724=AXIS2_PLACEMENT_3D('',#1026,#817,#818);
#725=AXIS2_PLACEMENT_3D('',#1027,#819,#820);
#726=AXIS2_PLACEMENT_3D('',#1030,#822,#823);
#727=AXIS2_PLACEMENT_3D('',#1031,#824,#825);
#728=AXIS2_PLACEMENT_3D('',#1034,#827,#828);
#729=AXIS2_PLACEMENT_3D('',#1035,#829,#830);
#730=AXIS2_PLACEMENT_3D('',#1038,#832,#833);
#731=AXIS2_PLACEMENT_3D('',#1039,#834,#835);
#732=AXIS2_PLACEMENT_3D('',#1041,#836,#837);
#733=AXIS2_PLACEMENT_3D('',#1042,#838,#839);
#734=AXIS2_PLACEMENT_3D('',#1044,#840,#841);
#735=AXIS2_PLACEMENT_3D('',#1046,#843,#844);
#736=AXIS2_PLACEMENT_3D('',#1055,#849,#850);
#737=AXIS2_PLACEMENT_3D('',#1061,#854,#855);
#738=AXIS2_PLACEMENT_3D('',#1067,#859,#860);
#739=AXIS2_PLACEMENT_3D('',#1070,#863,#864);
#740=AXIS2_PLACEMENT_3D('',#1071,#865,#866);
#741=AXIS2_PLACEMENT_3D('',#1073,#867,#868);
#742=AXIS2_PLACEMENT_3D('',#1074,#869,#870);
#743=AXIS2_PLACEMENT_3D('',#1076,#871,#872);
#744=AXIS2_PLACEMENT_3D('',#1078,#874,#875);
#745=AXIS2_PLACEMENT_3D('',#1087,#880,#881);
#746=AXIS2_PLACEMENT_3D('',#1093,#885,#886);
#747=AXIS2_PLACEMENT_3D('',#1099,#890,#891);
#748=AXIS2_PLACEMENT_3D('',#1102,#894,#895);
#749=AXIS2_PLACEMENT_3D('',#1103,#896,#897);
#750=AXIS2_PLACEMENT_3D('',#1105,#898,#899);
#751=AXIS2_PLACEMENT_3D('',#1106,#900,#901);
#752=AXIS2_PLACEMENT_3D('',#1108,#902,#903);
#753=AXIS2_PLACEMENT_3D('',#1110,#905,#906);
#754=AXIS2_PLACEMENT_3D('',#1119,#911,#912);
#755=AXIS2_PLACEMENT_3D('',#1125,#916,#917);
#756=AXIS2_PLACEMENT_3D('',#1131,#921,#922);
#757=AXIS2_PLACEMENT_3D('',#1134,#925,#926);
#758=AXIS2_PLACEMENT_3D('',#1135,#927,#928);
#759=AXIS2_PLACEMENT_3D('',#1137,#929,#930);
#760=AXIS2_PLACEMENT_3D('',#1138,#931,#932);
#761=AXIS2_PLACEMENT_3D('',#1140,#933,#934);
#762=AXIS2_PLACEMENT_3D('',#1142,#936,#937);
#763=AXIS2_PLACEMENT_3D('',#1151,#942,#943);
#764=AXIS2_PLACEMENT_3D('',#1157,#947,#948);
#765=AXIS2_PLACEMENT_3D('',#1163,#952,#953);
#766=AXIS2_PLACEMENT_3D('',#1166,#956,#957);
#767=AXIS2_PLACEMENT_3D('',#1167,#958,#959);
#768=AXIS2_PLACEMENT_3D('',#1169,#961,#962);
#769=DIRECTION('axis',(0.,0.,1.));
#770=DIRECTION('refdir',(1.,0.,0.));
#771=DIRECTION('center_axis',(7.10542735759981E-15,-1.,0.));
#772=DIRECTION('ref_axis',(-0.916515138991168,-6.21724893790087E-15,-0.4));
#773=DIRECTION('center_axis',(-1.03285143309542E-13,1.,0.));
#774=DIRECTION('ref_axis',(-0.916515138991168,-6.21724893790087E-15,-0.4));
#775=DIRECTION('',(-7.10542735759981E-15,1.,0.));
#776=DIRECTION('center_axis',(7.94647325690406E-15,-1.,1.77635683940025E-15));
#777=DIRECTION('ref_axis',(-0.916515138991168,-7.99360577730112E-15,-0.4));
#778=DIRECTION('',(7.10542735759981E-15,-1.,0.));
#779=DIRECTION('center_axis',(-1.,9.787729255455E-14,0.));
#780=DIRECTION('ref_axis',(8.97060203897126E-14,0.916515138991168,-0.4));
#781=DIRECTION('center_axis',(0.,0.,1.));
#782=DIRECTION('ref_axis',(1.,-1.06387961717534E-14,0.));
#783=DIRECTION('center_axis',(0.,0.,-1.));
#784=DIRECTION('ref_axis',(-0.707106781186515,0.70710678118658,0.));
#785=DIRECTION('center_axis',(-1.,9.76437393615478E-14,0.));
#786=DIRECTION('ref_axis',(8.88178419700125E-14,0.916515138991168,-0.4));
#787=DIRECTION('center_axis',(-1.,9.45824133992483E-14,3.5527136788005E-15));
#788=DIRECTION('ref_axis',(8.5265128291212E-14,0.916515138991168,-0.4));
#789=DIRECTION('',(-1.,9.76437393615478E-14,0.));
#790=DIRECTION('',(1.,-9.76437393615478E-14,0.));
#791=DIRECTION('center_axis',(-1.01753620972552E-14,1.,-9.03753702741668E-30));
#792=DIRECTION('ref_axis',(0.916515138991168,9.32587340685131E-15,-0.4));
#793=DIRECTION('center_axis',(0.,0.,1.));
#794=DIRECTION('ref_axis',(-1.48943146404547E-13,-1.,0.));
#795=DIRECTION('center_axis',(0.,0.,-1.));
#796=DIRECTION('ref_axis',(0.707106781186578,0.707106781186517,0.));
#797=DIRECTION('center_axis',(-1.03028696685232E-14,1.,0.));
#798=DIRECTION('ref_axis',(0.916515138991168,9.76996261670137E-15,-0.4));
#799=DIRECTION('center_axis',(-1.03285143309542E-13,1.,0.));
#800=DIRECTION('ref_axis',(0.916515138991168,9.76996261670137E-15,-0.4));
#801=DIRECTION('',(-1.03028696685232E-14,1.,0.));
#802=DIRECTION('',(1.03028696685232E-14,-1.,0.));
#803=DIRECTION('center_axis',(0.,0.,-1.));
#804=DIRECTION('ref_axis',(1.,0.,0.));
#805=DIRECTION('',(-1.,-1.03285143309542E-13,0.));
#806=DIRECTION('center_axis',(0.,0.,1.));
#807=DIRECTION('ref_axis',(1.,0.,0.));
#808=DIRECTION('center_axis',(0.,0.,1.));
#809=DIRECTION('ref_axis',(1.,0.,0.));
#810=DIRECTION('center_axis',(0.,0.,1.));
#811=DIRECTION('ref_axis',(1.,0.,0.));
#812=DIRECTION('center_axis',(0.,0.,1.));
#813=DIRECTION('ref_axis',(1.,0.,0.));
#814=DIRECTION('center_axis',(0.,0.,1.));
#815=DIRECTION('ref_axis',(1.,0.,0.));
#816=DIRECTION('',(0.,0.,1.));
#817=DIRECTION('center_axis',(0.,0.,1.));
#818=DIRECTION('ref_axis',(1.,0.,0.));
#819=DIRECTION('center_axis',(0.,0.,1.));
#820=DIRECTION('ref_axis',(1.,0.,0.));
#821=DIRECTION('',(0.,0.,1.));
#822=DIRECTION('center_axis',(0.,0.,1.));
#823=DIRECTION('ref_axis',(1.,0.,0.));
#824=DIRECTION('center_axis',(0.,0.,1.));
#825=DIRECTION('ref_axis',(1.,0.,0.));
#826=DIRECTION('',(0.,0.,1.));
#827=DIRECTION('center_axis',(0.,0.,1.));
#828=DIRECTION('ref_axis',(1.,0.,0.));
#829=DIRECTION('center_axis',(0.,0.,1.));
#830=DIRECTION('ref_axis',(1.,0.,0.));
#831=DIRECTION('',(0.,0.,1.));
#832=DIRECTION('center_axis',(0.,0.,1.));
#833=DIRECTION('ref_axis',(1.,0.,0.));
#834=DIRECTION('center_axis',(0.,0.,-1.));
#835=DIRECTION('ref_axis',(1.,0.,0.));
#836=DIRECTION('center_axis',(0.,0.,1.));
#837=DIRECTION('ref_axis',(1.,0.,0.));
#838=DIRECTION('center_axis',(0.,0.,1.));
#839=DIRECTION('ref_axis',(1.,0.,0.));
#840=DIRECTION('center_axis',(0.,0.,-1.));
#841=DIRECTION('ref_axis',(1.,0.,0.));
#842=DIRECTION('',(0.,0.,-1.));
#843=DIRECTION('center_axis',(-1.,0.,0.));
#844=DIRECTION('ref_axis',(0.,-1.,0.));
#845=DIRECTION('',(0.,1.,0.));
#846=DIRECTION('',(0.,0.,1.));
#847=DIRECTION('',(0.,-1.,0.));
#848=DIRECTION('',(0.,0.,1.));
#849=DIRECTION('center_axis',(0.,1.,0.));
#850=DIRECTION('ref_axis',(-1.,0.,0.));
#851=DIRECTION('',(1.,0.,0.));
#852=DIRECTION('',(-1.,0.,0.));
#853=DIRECTION('',(0.,0.,1.));
#854=DIRECTION('center_axis',(1.,0.,0.));
#855=DIRECTION('ref_axis',(0.,1.,0.));
#856=DIRECTION('',(0.,-1.,0.));
#857=DIRECTION('',(0.,1.,0.));
#858=DIRECTION('',(0.,0.,1.));
#859=DIRECTION('center_axis',(0.,-1.,0.));
#860=DIRECTION('ref_axis',(1.,0.,0.));
#861=DIRECTION('',(-1.,0.,0.));
#862=DIRECTION('',(1.,0.,0.));
#863=DIRECTION('center_axis',(0.,0.,-1.));
#864=DIRECTION('ref_axis',(1.,0.,0.));
#865=DIRECTION('center_axis',(0.,0.,-1.));
#866=DIRECTION('ref_axis',(1.,0.,0.));
#867=DIRECTION('center_axis',(0.,0.,1.));
#868=DIRECTION('ref_axis',(1.,0.,0.));
#869=DIRECTION('center_axis',(0.,0.,1.));
#870=DIRECTION('ref_axis',(1.,0.,0.));
#871=DIRECTION('center_axis',(0.,0.,-1.));
#872=DIRECTION('ref_axis',(1.,0.,0.));
#873=DIRECTION('',(0.,0.,-1.));
#874=DIRECTION('center_axis',(0.,1.,0.));
#875=DIRECTION('ref_axis',(-1.,0.,0.));
#876=DIRECTION('',(1.,0.,0.));
#877=DIRECTION('',(0.,0.,1.));
#878=DIRECTION('',(-1.,0.,0.));
#879=DIRECTION('',(0.,0.,1.));
#880=DIRECTION('center_axis',(1.,0.,0.));
#881=DIRECTION('ref_axis',(0.,1.,0.));
#882=DIRECTION('',(0.,-1.,0.));
#883=DIRECTION('',(0.,1.,0.));
#884=DIRECTION('',(0.,0.,1.));
#885=DIRECTION('center_axis',(0.,-1.,0.));
#886=DIRECTION('ref_axis',(1.,0.,0.));
#887=DIRECTION('',(-1.,0.,0.));
#888=DIRECTION('',(1.,0.,0.));
#889=DIRECTION('',(0.,0.,1.));
#890=DIRECTION('center_axis',(-1.,0.,0.));
#891=DIRECTION('ref_axis',(0.,-1.,0.));
#892=DIRECTION('',(0.,1.,0.));
#893=DIRECTION('',(0.,-1.,0.));
#894=DIRECTION('center_axis',(0.,0.,-1.));
#895=DIRECTION('ref_axis',(1.,0.,0.));
#896=DIRECTION('center_axis',(0.,0.,-1.));
#897=DIRECTION('ref_axis',(1.,0.,0.));
#898=DIRECTION('center_axis',(0.,0.,1.));
#899=DIRECTION('ref_axis',(1.,0.,0.));
#900=DIRECTION('center_axis',(0.,0.,1.));
#901=DIRECTION('ref_axis',(1.,0.,0.));
#902=DIRECTION('center_axis',(0.,0.,-1.));
#903=DIRECTION('ref_axis',(1.,0.,0.));
#904=DIRECTION('',(0.,0.,-1.));
#905=DIRECTION('center_axis',(0.,-1.,0.));
#906=DIRECTION('ref_axis',(1.,0.,0.));
#907=DIRECTION('',(-1.,0.,0.));
#908=DIRECTION('',(0.,0.,1.));
#909=DIRECTION('',(1.,0.,0.));
#910=DIRECTION('',(0.,0.,1.));
#911=DIRECTION('center_axis',(-1.,0.,0.));
#912=DIRECTION('ref_axis',(0.,-1.,0.));
#913=DIRECTION('',(0.,1.,0.));
#914=DIRECTION('',(0.,-1.,0.));
#915=DIRECTION('',(0.,0.,1.));
#916=DIRECTION('center_axis',(0.,1.,0.));
#917=DIRECTION('ref_axis',(-1.,0.,0.));
#918=DIRECTION('',(1.,0.,0.));
#919=DIRECTION('',(-1.,0.,0.));
#920=DIRECTION('',(0.,0.,1.));
#921=DIRECTION('center_axis',(1.,0.,0.));
#922=DIRECTION('ref_axis',(0.,1.,0.));
#923=DIRECTION('',(0.,-1.,0.));
#924=DIRECTION('',(0.,1.,0.));
#925=DIRECTION('center_axis',(0.,0.,-1.));
#926=DIRECTION('ref_axis',(1.,0.,0.));
#927=DIRECTION('center_axis',(0.,0.,-1.));
#928=DIRECTION('ref_axis',(1.,0.,0.));
#929=DIRECTION('center_axis',(0.,0.,1.));
#930=DIRECTION('ref_axis',(1.,0.,0.));
#931=DIRECTION('center_axis',(0.,0.,1.));
#932=DIRECTION('ref_axis',(1.,0.,0.));
#933=DIRECTION('center_axis',(0.,0.,-1.));
#934=DIRECTION('ref_axis',(1.,0.,0.));
#935=DIRECTION('',(0.,0.,-1.));
#936=DIRECTION('center_axis',(1.,0.,0.));
#937=DIRECTION('ref_axis',(0.,1.,0.));
#938=DIRECTION('',(0.,-1.,0.));
#939=DIRECTION('',(0.,0.,1.));
#940=DIRECTION('',(0.,1.,0.));
#941=DIRECTION('',(0.,0.,1.));
#942=DIRECTION('center_axis',(0.,-1.,0.));
#943=DIRECTION('ref_axis',(1.,0.,0.));
#944=DIRECTION('',(-1.,0.,0.));
#945=DIRECTION('',(1.,0.,0.));
#946=DIRECTION('',(0.,0.,1.));
#947=DIRECTION('center_axis',(-1.,0.,0.));
#948=DIRECTION('ref_axis',(0.,-1.,0.));
#949=DIRECTION('',(0.,1.,0.));
#950=DIRECTION('',(0.,-1.,0.));
#951=DIRECTION('',(0.,0.,1.));
#952=DIRECTION('center_axis',(0.,1.,0.));
#953=DIRECTION('ref_axis',(-1.,0.,0.));
#954=DIRECTION('',(1.,0.,0.));
#955=DIRECTION('',(-1.,0.,0.));
#956=DIRECTION('center_axis',(0.,0.,-1.));
#957=DIRECTION('ref_axis',(1.,0.,0.));
#958=DIRECTION('center_axis',(1.03285143309542E-13,-1.,0.));
#959=DIRECTION('ref_axis',(-1.,-1.03285143309542E-13,0.));
#960=DIRECTION('',(-1.,-1.03285143309542E-13,0.));
#961=DIRECTION('center_axis',(0.,0.,-1.));
#962=DIRECTION('ref_axis',(1.,0.,0.));
#963=CARTESIAN_POINT('',(0.,0.,0.));
#964=CARTESIAN_POINT('Origin',(-37.532424305044,-25.0000000000008,0.));
#965=CARTESIAN_POINT('',(-37.532424305044,-25.0000000000004,-5.));
#966=CARTESIAN_POINT('',(-42.1149999999998,-25.0000000000008,-2.));
#967=CARTESIAN_POINT('Origin',(-37.532424305044,-24.9999999999927,0.));
#968=CARTESIAN_POINT('',(-42.1150000000001,20.000000000007,-2.));
#969=CARTESIAN_POINT('',(-42.1149999999998,-25.0000000000008,-2.));
#970=CARTESIAN_POINT('',(-37.5324243050443,20.0000000000071,-5.));
#971=CARTESIAN_POINT('Origin',(-37.5324243050443,20.0000000000071,0.));
#972=CARTESIAN_POINT('',(-37.532424305044,-25.0000000000008,-5.));
#973=CARTESIAN_POINT('Ctrl Pts',(-37.1150000000001,25.0000000000071,-2.));
#974=CARTESIAN_POINT('Ctrl Pts',(-42.1150000000004,25.0000000000074,-2.));
#975=CARTESIAN_POINT('Ctrl Pts',(-42.1150000000001,20.0000000000071,-2.));
#976=CARTESIAN_POINT('Ctrl Pts',(-37.1150000000001,23.6906926585911,-5.));
#977=CARTESIAN_POINT('Ctrl Pts',(-40.8056926585843,23.6906926585913,-5.));
#978=CARTESIAN_POINT('Ctrl Pts',(-40.8056926585842,20.0000000000071,-5.));
#979=CARTESIAN_POINT('Ctrl Pts',(-37.1150000000001,20.4174243050512,-5.));
#980=CARTESIAN_POINT('Ctrl Pts',(-37.5324243050443,20.4174243050512,-5.));
#981=CARTESIAN_POINT('Ctrl Pts',(-37.5324243050443,20.0000000000071,-5.));
#982=CARTESIAN_POINT('',(-37.1149999999996,25.0000000000071,-2.));
#983=CARTESIAN_POINT('',(-37.1150000000001,20.4174243050512,-5.));
#984=CARTESIAN_POINT('Origin',(-37.1150000000001,20.4174243050512,0.));
#985=CARTESIAN_POINT('Origin',(-37.1150000000001,20.0000000000071,-5.));
#986=CARTESIAN_POINT('Origin',(-37.1150000000001,20.0000000000071,-2.));
#987=CARTESIAN_POINT('Origin',(-42.1150000000006,20.4174243050517,0.));
#988=CARTESIAN_POINT('',(37.1150000000002,24.9999999999998,-2.));
#989=CARTESIAN_POINT('',(37.1149999999998,20.417424305044,-5.));
#990=CARTESIAN_POINT('Origin',(37.1149999999998,20.417424305044,0.));
#991=CARTESIAN_POINT('',(-42.1150000000006,20.4174243050517,-5.));
#992=CARTESIAN_POINT('',(-42.1150000000002,25.0000000000075,-2.));
#993=CARTESIAN_POINT('Ctrl Pts',(42.1149999999997,19.9999999999991,-2.));
#994=CARTESIAN_POINT('Ctrl Pts',(42.1150000000002,24.9999999999988,-2.));
#995=CARTESIAN_POINT('Ctrl Pts',(37.1150000000005,24.9999999999998,-2.));
#996=CARTESIAN_POINT('Ctrl Pts',(40.8056926585838,19.9999999999993,-5.));
#997=CARTESIAN_POINT('Ctrl Pts',(40.8056926585841,23.6906926585831,-5.));
#998=CARTESIAN_POINT('Ctrl Pts',(37.1150000000003,23.6906926585839,-5.));
#999=CARTESIAN_POINT('Ctrl Pts',(37.5324243050439,19.9999999999997,-5.));
#1000=CARTESIAN_POINT('Ctrl Pts',(37.5324243050439,20.4174243050439,-5.));
#1001=CARTESIAN_POINT('Ctrl Pts',(37.1149999999998,20.417424305044,-5.));
#1002=CARTESIAN_POINT('',(42.1149999999997,19.9999999999999,-2.));
#1003=CARTESIAN_POINT('',(37.5324243050439,19.9999999999998,-5.));
#1004=CARTESIAN_POINT('Origin',(37.5324243050439,19.9999999999998,0.));
#1005=CARTESIAN_POINT('Origin',(37.1149999999997,19.9999999999998,-5.));
#1006=CARTESIAN_POINT('Origin',(37.1149999999997,19.9999999999998,-2.));
#1007=CARTESIAN_POINT('Origin',(37.5324243050438,24.9999999999993,0.));
#1008=CARTESIAN_POINT('',(42.1150000000002,-24.9999999999921,-2.));
#1009=CARTESIAN_POINT('',(37.5324243050443,-24.9999999999926,-5.));
#1010=CARTESIAN_POINT('Origin',(37.5324243050443,-24.9999999999922,0.));
#1011=CARTESIAN_POINT('',(37.5324243050438,24.9999999999993,-5.));
#1012=CARTESIAN_POINT('',(42.1149999999997,24.9999999999993,-2.));
#1013=CARTESIAN_POINT('Origin',(0.,3.35731442646647E-12,-5.));
#1014=CARTESIAN_POINT('',(42.1150000000002,-24.9999999999921,-5.));
#1015=CARTESIAN_POINT('',(30.1598,16.2861,-5.));
#1016=CARTESIAN_POINT('Origin',(32.7848,16.2861,-5.));
#1017=CARTESIAN_POINT('',(-35.4098,16.2861,-5.));
#1018=CARTESIAN_POINT('Origin',(-32.7848,16.2861,-5.));
#1019=CARTESIAN_POINT('',(30.1598,-16.2861,-5.));
#1020=CARTESIAN_POINT('Origin',(32.7848,-16.2861,-5.));
#1021=CARTESIAN_POINT('',(-35.4098,-16.2861,-5.));
#1022=CARTESIAN_POINT('Origin',(-32.7848,-16.2861,-5.));
#1023=CARTESIAN_POINT('Origin',(-32.7848,-16.2861,-5.));
#1024=CARTESIAN_POINT('',(-35.4098,-16.2861,-2.));
#1025=CARTESIAN_POINT('',(-35.4098,-16.2861,-5.));
#1026=CARTESIAN_POINT('Origin',(-32.7848,-16.2861,-2.));
#1027=CARTESIAN_POINT('Origin',(32.7848,-16.2861,-5.));
#1028=CARTESIAN_POINT('',(30.1598,-16.2861,-2.));
#1029=CARTESIAN_POINT('',(30.1598,-16.2861,-5.));
#1030=CARTESIAN_POINT('Origin',(32.7848,-16.2861,-2.));
#1031=CARTESIAN_POINT('Origin',(-32.7848,16.2861,-5.));
#1032=CARTESIAN_POINT('',(-35.4098,16.2861,-2.));
#1033=CARTESIAN_POINT('',(-35.4098,16.2861,-5.));
#1034=CARTESIAN_POINT('Origin',(-32.7848,16.2861,-2.));
#1035=CARTESIAN_POINT('Origin',(32.7848,16.2861,-5.));
#1036=CARTESIAN_POINT('',(30.1598,16.2861,-2.));
#1037=CARTESIAN_POINT('',(30.1598,16.2861,-5.));
#1038=CARTESIAN_POINT('Origin',(32.7848,16.2861,-2.));
#1039=CARTESIAN_POINT('Origin',(33.1149999999998,15.9999999999997,-2.));
#1040=CARTESIAN_POINT('',(31.5348,16.2861,-2.));
#1041=CARTESIAN_POINT('Origin',(32.7848,16.2861,-2.));
#1042=CARTESIAN_POINT('Origin',(32.7848,16.2861,-2.));
#1043=CARTESIAN_POINT('',(31.5348,16.2861,0.));
#1044=CARTESIAN_POINT('Origin',(32.7848,16.2861,0.));
#1045=CARTESIAN_POINT('',(31.5348,16.2861,-2.));
#1046=CARTESIAN_POINT('Origin',(29.1149999999998,19.9999999999997,-2.));
#1047=CARTESIAN_POINT('',(29.1149999999998,11.9999999999997,-2.));
#1048=CARTESIAN_POINT('',(29.1149999999998,19.9999999999997,-2.));
#1049=CARTESIAN_POINT('',(29.1149999999998,10.0000000000015,-2.));
#1050=CARTESIAN_POINT('',(29.1149999999998,11.9999999999997,0.));
#1051=CARTESIAN_POINT('',(29.1149999999998,11.9999999999997,-2.));
#1052=CARTESIAN_POINT('',(29.1149999999998,19.9999999999997,0.));
#1053=CARTESIAN_POINT('',(29.1149999999998,19.9999999999997,0.));
#1054=CARTESIAN_POINT('',(29.1149999999998,19.9999999999997,-2.));
#1055=CARTESIAN_POINT('Origin',(37.1149999999998,19.9999999999997,-2.));
#1056=CARTESIAN_POINT('',(37.1149999999998,19.9999999999997,-2.));
#1057=CARTESIAN_POINT('',(18.5574999999999,19.9999999999997,-2.));
#1058=CARTESIAN_POINT('',(37.1149999999998,19.9999999999997,0.));
#1059=CARTESIAN_POINT('',(37.1149999999998,19.9999999999997,0.));
#1060=CARTESIAN_POINT('',(37.1149999999998,19.9999999999997,-2.));
#1061=CARTESIAN_POINT('Origin',(37.1149999999998,11.9999999999997,-2.));
#1062=CARTESIAN_POINT('',(37.1149999999998,11.9999999999997,-2.));
#1063=CARTESIAN_POINT('',(37.1149999999998,6.00000000000152,-2.));
#1064=CARTESIAN_POINT('',(37.1149999999998,11.9999999999997,0.));
#1065=CARTESIAN_POINT('',(37.1149999999998,11.9999999999997,0.));
#1066=CARTESIAN_POINT('',(37.1149999999998,11.9999999999997,-2.));
#1067=CARTESIAN_POINT('Origin',(29.1149999999998,11.9999999999997,-2.));
#1068=CARTESIAN_POINT('',(14.5574999999999,11.9999999999997,-2.));
#1069=CARTESIAN_POINT('',(29.1149999999998,11.9999999999997,0.));
#1070=CARTESIAN_POINT('Origin',(33.1149999999998,15.9999999999997,0.));
#1071=CARTESIAN_POINT('Origin',(-33.115,16.0000000000072,-2.));
#1072=CARTESIAN_POINT('',(-34.0348,16.2861,-2.));
#1073=CARTESIAN_POINT('Origin',(-32.7848,16.2861,-2.));
#1074=CARTESIAN_POINT('Origin',(-32.7848,16.2861,-2.));
#1075=CARTESIAN_POINT('',(-34.0348,16.2861,0.));
#1076=CARTESIAN_POINT('Origin',(-32.7848,16.2861,0.));
#1077=CARTESIAN_POINT('',(-34.0348,16.2861,-2.));
#1078=CARTESIAN_POINT('Origin',(-29.115,20.0000000000072,-2.));
#1079=CARTESIAN_POINT('',(-37.115,20.0000000000072,-2.));
#1080=CARTESIAN_POINT('',(-29.115,20.0000000000072,-2.));
#1081=CARTESIAN_POINT('',(-14.5575,20.0000000000072,-2.));
#1082=CARTESIAN_POINT('',(-37.115,20.0000000000072,0.));
#1083=CARTESIAN_POINT('',(-37.115,20.0000000000072,-2.));
#1084=CARTESIAN_POINT('',(-29.115,20.0000000000072,0.));
#1085=CARTESIAN_POINT('',(-37.115,20.0000000000072,0.));
#1086=CARTESIAN_POINT('',(-29.115,20.0000000000072,-2.));
#1087=CARTESIAN_POINT('Origin',(-29.115,12.0000000000072,-2.));
#1088=CARTESIAN_POINT('',(-29.115,12.0000000000072,-2.));
#1089=CARTESIAN_POINT('',(-29.115,6.00000000000526,-2.));
#1090=CARTESIAN_POINT('',(-29.115,12.0000000000072,0.));
#1091=CARTESIAN_POINT('',(-29.115,20.0000000000072,0.));
#1092=CARTESIAN_POINT('',(-29.115,12.0000000000072,-2.));
#1093=CARTESIAN_POINT('Origin',(-37.115,12.0000000000072,-2.));
#1094=CARTESIAN_POINT('',(-37.115,12.0000000000072,-2.));
#1095=CARTESIAN_POINT('',(-18.5575,12.0000000000072,-2.));
#1096=CARTESIAN_POINT('',(-37.115,12.0000000000072,0.));
#1097=CARTESIAN_POINT('',(-29.115,12.0000000000072,0.));
#1098=CARTESIAN_POINT('',(-37.115,12.0000000000072,-2.));
#1099=CARTESIAN_POINT('Origin',(-37.115,20.0000000000072,-2.));
#1100=CARTESIAN_POINT('',(-37.115,10.0000000000053,-2.));
#1101=CARTESIAN_POINT('',(-37.115,12.0000000000072,0.));
#1102=CARTESIAN_POINT('Origin',(-33.115,16.0000000000072,0.));
#1103=CARTESIAN_POINT('Origin',(33.115,-15.9999999999928,-2.));
#1104=CARTESIAN_POINT('',(31.5348,-16.2861,-2.));
#1105=CARTESIAN_POINT('Origin',(32.7848,-16.2861,-2.));
#1106=CARTESIAN_POINT('Origin',(32.7848,-16.2861,-2.));
#1107=CARTESIAN_POINT('',(31.5348,-16.2861,0.));
#1108=CARTESIAN_POINT('Origin',(32.7848,-16.2861,0.));
#1109=CARTESIAN_POINT('',(31.5348,-16.2861,-2.));
#1110=CARTESIAN_POINT('Origin',(29.115,-19.9999999999928,-2.));
#1111=CARTESIAN_POINT('',(37.115,-19.9999999999928,-2.));
#1112=CARTESIAN_POINT('',(29.115,-19.9999999999928,-2.));
#1113=CARTESIAN_POINT('',(14.5575,-19.9999999999928,-2.));
#1114=CARTESIAN_POINT('',(37.115,-19.9999999999928,0.));
#1115=CARTESIAN_POINT('',(37.115,-19.9999999999928,-2.));
#1116=CARTESIAN_POINT('',(29.115,-19.9999999999928,0.));
#1117=CARTESIAN_POINT('',(37.115,-19.9999999999928,0.));
#1118=CARTESIAN_POINT('',(29.115,-19.9999999999928,-2.));
#1119=CARTESIAN_POINT('Origin',(29.115,-11.9999999999928,-2.));
#1120=CARTESIAN_POINT('',(29.115,-11.9999999999928,-2.));
#1121=CARTESIAN_POINT('',(29.115,-5.9999999999947,-2.));
#1122=CARTESIAN_POINT('',(29.115,-11.9999999999928,0.));
#1123=CARTESIAN_POINT('',(29.115,-19.9999999999928,0.));
#1124=CARTESIAN_POINT('',(29.115,-11.9999999999928,-2.));
#1125=CARTESIAN_POINT('Origin',(37.115,-11.9999999999928,-2.));
#1126=CARTESIAN_POINT('',(37.115,-11.9999999999928,-2.));
#1127=CARTESIAN_POINT('',(18.5575,-11.9999999999928,-2.));
#1128=CARTESIAN_POINT('',(37.115,-11.9999999999928,0.));
#1129=CARTESIAN_POINT('',(29.115,-11.9999999999928,0.));
#1130=CARTESIAN_POINT('',(37.115,-11.9999999999928,-2.));
#1131=CARTESIAN_POINT('Origin',(37.115,-19.9999999999928,-2.));
#1132=CARTESIAN_POINT('',(37.115,-9.9999999999947,-2.));
#1133=CARTESIAN_POINT('',(37.115,-11.9999999999928,0.));
#1134=CARTESIAN_POINT('Origin',(33.115,-15.9999999999928,0.));
#1135=CARTESIAN_POINT('Origin',(-33.115,-16.0000000000002,-2.));
#1136=CARTESIAN_POINT('',(-34.0348,-16.2861,-2.));
#1137=CARTESIAN_POINT('Origin',(-32.7848,-16.2861,-2.));
#1138=CARTESIAN_POINT('Origin',(-32.7848,-16.2861,-2.));
#1139=CARTESIAN_POINT('',(-34.0348,-16.2861,0.));
#1140=CARTESIAN_POINT('Origin',(-32.7848,-16.2861,0.));
#1141=CARTESIAN_POINT('',(-34.0348,-16.2861,-2.));
#1142=CARTESIAN_POINT('Origin',(-29.115,-20.0000000000002,-2.));
#1143=CARTESIAN_POINT('',(-29.115,-12.0000000000002,-2.));
#1144=CARTESIAN_POINT('',(-29.115,-20.0000000000002,-2.));
#1145=CARTESIAN_POINT('',(-29.115,-9.99999999999842,-2.));
#1146=CARTESIAN_POINT('',(-29.115,-12.0000000000002,0.));
#1147=CARTESIAN_POINT('',(-29.115,-12.0000000000002,-2.));
#1148=CARTESIAN_POINT('',(-29.115,-20.0000000000002,0.));
#1149=CARTESIAN_POINT('',(-29.115,-20.0000000000002,0.));
#1150=CARTESIAN_POINT('',(-29.115,-20.0000000000002,-2.));
#1151=CARTESIAN_POINT('Origin',(-37.115,-20.0000000000002,-2.));
#1152=CARTESIAN_POINT('',(-37.115,-20.0000000000002,-2.));
#1153=CARTESIAN_POINT('',(-18.5575,-20.0000000000002,-2.));
#1154=CARTESIAN_POINT('',(-37.115,-20.0000000000002,0.));
#1155=CARTESIAN_POINT('',(-37.115,-20.0000000000002,0.));
#1156=CARTESIAN_POINT('',(-37.115,-20.0000000000002,-2.));
#1157=CARTESIAN_POINT('Origin',(-37.115,-12.0000000000002,-2.));
#1158=CARTESIAN_POINT('',(-37.115,-12.0000000000002,-2.));
#1159=CARTESIAN_POINT('',(-37.115,-5.99999999999842,-2.));
#1160=CARTESIAN_POINT('',(-37.115,-12.0000000000002,0.));
#1161=CARTESIAN_POINT('',(-37.115,-12.0000000000002,0.));
#1162=CARTESIAN_POINT('',(-37.115,-12.0000000000002,-2.));
#1163=CARTESIAN_POINT('Origin',(-29.115,-12.0000000000002,-2.));
#1164=CARTESIAN_POINT('',(-14.5575,-12.0000000000002,-2.));
#1165=CARTESIAN_POINT('',(-29.115,-12.0000000000002,0.));
#1166=CARTESIAN_POINT('Origin',(-33.115,-16.0000000000002,0.));
#1167=CARTESIAN_POINT('Origin',(42.1150000000002,-24.9999999999921,-2.));
#1168=CARTESIAN_POINT('',(42.1150000000002,-24.9999999999921,-2.));
#1169=CARTESIAN_POINT('Origin',(0.,3.35731442646647E-12,-2.));
#1170=UNCERTAINTY_MEASURE_WITH_UNIT(LENGTH_MEASURE(0.01),#1174,
'DISTANCE_ACCURACY_VALUE',
'Maximum model space distance between geometric entities at asserted c
onnectivities');
#1171=UNCERTAINTY_MEASURE_WITH_UNIT(LENGTH_MEASURE(0.01),#1174,
'DISTANCE_ACCURACY_VALUE',
'Maximum model space distance between geometric entities at asserted c
onnectivities');
#1172=(
GEOMETRIC_REPRESENTATION_CONTEXT(3)
GLOBAL_UNCERTAINTY_ASSIGNED_CONTEXT((#1170))
GLOBAL_UNIT_ASSIGNED_CONTEXT((#1174,#1176,#1177))
REPRESENTATION_CONTEXT('','3D')
);
#1173=(
GEOMETRIC_REPRESENTATION_CONTEXT(3)
GLOBAL_UNCERTAINTY_ASSIGNED_CONTEXT((#1171))
GLOBAL_UNIT_ASSIGNED_CONTEXT((#1174,#1176,#1177))
REPRESENTATION_CONTEXT('','3D')
);
#1174=(
LENGTH_UNIT()
NAMED_UNIT(*)
SI_UNIT(.MILLI.,.METRE.)
);
#1175=(
LENGTH_UNIT()
NAMED_UNIT(*)
SI_UNIT($,.METRE.)
);
#1176=(
NAMED_UNIT(*)
PLANE_ANGLE_UNIT()
SI_UNIT($,.RADIAN.)
);
#1177=(
NAMED_UNIT(*)
SI_UNIT($,.STERADIAN.)
SOLID_ANGLE_UNIT()
);
#1178=SHAPE_DEFINITION_REPRESENTATION(#1179,#1180);
#1179=PRODUCT_DEFINITION_SHAPE('',$,#1182);
#1180=SHAPE_REPRESENTATION('',(#704),#1172);
#1181=PRODUCT_DEFINITION_CONTEXT('part definition',#1186,'design');
#1182=PRODUCT_DEFINITION('Base','Base',#1183,#1181);
#1183=PRODUCT_DEFINITION_FORMATION('',$,#1188);
#1184=PRODUCT_RELATED_PRODUCT_CATEGORY('Base','Base',(#1188));
#1185=APPLICATION_PROTOCOL_DEFINITION('international standard',
'automotive_design',2009,#1186);
#1186=APPLICATION_CONTEXT(
'Core Data for Automotive Mechanical Design Process');
#1187=PRODUCT_CONTEXT('part definition',#1186,'mechanical');
#1188=PRODUCT('Base','Base',$,(#1187));
#1189=PRESENTATION_STYLE_ASSIGNMENT((#1191));
#1190=PRESENTATION_STYLE_ASSIGNMENT((#1192));
#1191=SURFACE_STYLE_USAGE(.BOTH.,#1193);
#1192=SURFACE_STYLE_USAGE(.BOTH.,#1194);
#1193=SURFACE_SIDE_STYLE('',(#1195));
#1194=SURFACE_SIDE_STYLE('',(#1196));
#1195=SURFACE_STYLE_FILL_AREA(#1197);
#1196=SURFACE_STYLE_FILL_AREA(#1198);
#1197=FILL_AREA_STYLE('Steel - Satin',(#1199));
#1198=FILL_AREA_STYLE('Powder Coat - Rough (Green)',(#1200));
#1199=FILL_AREA_STYLE_COLOUR('Steel - Satin',#1201);
#1200=FILL_AREA_STYLE_COLOUR('Powder Coat - Rough (Green)',#1202);
#1201=COLOUR_RGB('Steel - Satin',0.627450980392157,0.627450980392157,0.627450980392157);
#1202=COLOUR_RGB('Powder Coat - Rough (Green)',0.266666666666667,0.588235294117647,
0.282352941176471);
ENDSEC;
END-ISO-10303-21;
